<svg width="828" height="797" viewBox="0 0 828 797" fill="none" xmlns="http://www.w3.org/2000/svg">
<rect width="827.302" height="796.991" fill="#BF0808"/>
<path d="M543.566 404.556C542.483 404.339 541.4 404.253 540.318 404.274C535.856 404.361 531.589 405.4 527.539 407.415C526.11 408.129 524.702 408.844 523.273 409.494C522.731 409.732 522.385 409.71 521.952 409.277C520.977 408.324 519.981 407.393 518.963 406.527C513.613 402 507.701 398.535 501.55 395.524C496.287 392.925 490.916 390.608 485.501 388.529C486.324 391.106 486.584 393.813 486.259 396.477C493.536 399.206 500.575 402.52 507.224 406.851C511.274 409.494 515.108 412.439 518.356 416.208C519.721 417.789 520.955 419.5 521.865 421.449C523.858 425.716 523.468 429.527 520.652 433.209C518.855 435.548 516.645 437.303 514.263 438.84C510.43 441.331 506.315 443.107 502.07 444.58C492.54 447.893 482.729 449.691 472.831 450.882C468.868 451.359 464.905 451.727 460.876 451.987C461.548 453.005 462.284 454.001 462.804 455.127C463.454 456.535 463.215 458.202 461.786 459.047C460.551 459.762 458.516 459.437 457.866 458.029C457.043 456.188 455.613 454.716 454.79 452.896C454.704 452.723 454.639 452.528 454.595 452.333C447.665 452.615 440.41 452.636 432.439 452.441C419.271 452.008 405.345 450.687 391.203 448.305C390.791 448.651 390.25 448.868 389.708 448.89C389.643 448.89 389.557 448.89 389.492 448.89C389.362 448.911 389.232 448.955 389.08 448.976C388.712 449.063 388.365 449.193 387.997 449.301C387.499 449.474 387.001 449.409 386.546 449.214C384.164 450.904 381.673 452.485 379.009 453.524C379.096 453.763 379.118 454.022 379.118 454.282C401.62 459.047 424.318 461.321 447.253 461.061C461.591 460.91 475.842 459.675 489.92 456.491C497.522 454.78 504.95 452.485 512.054 448.998C512.249 448.911 512.465 448.825 512.66 448.76C512.704 448.76 512.769 448.803 512.877 448.868C512.66 449.431 512.249 449.778 511.881 450.189C502.914 460.455 492.237 467.949 480.347 473.45C466.507 479.86 452.061 483.239 437.118 484.235C411.994 485.903 387.932 481.095 364.932 470.158C344.811 460.585 327.377 446.984 313.169 428.639C312.779 428.12 312.389 427.6 312 427.058C312.346 426.82 312.498 427.058 312.649 427.21C319.017 432.43 326.056 436.35 333.354 439.728C342.039 443.735 350.962 446.919 360.037 449.561C360.145 449.474 360.232 449.409 360.362 449.366C362.203 448.586 364.217 449.063 366.101 449.431C367.985 449.821 370.216 450.427 371.905 450.579C375.934 450.947 379.572 448.955 382.843 446.724C375.739 445.316 368.613 443.627 361.531 441.634C351.33 438.754 341.303 435.245 331.708 430.459C325.579 427.405 319.666 423.918 314.469 419.153C312.454 417.312 310.635 415.276 309.162 412.872C305.979 407.631 306.347 403.018 310.31 398.427C312.476 395.914 315.097 394.073 317.869 392.471C323.781 389.049 330.127 386.883 336.603 385.172C336.733 385.129 336.885 385.107 337.014 385.064C336.43 382.681 336.495 379.996 337.014 377.418C327.68 379.757 318.584 382.833 310.462 388.68C310.05 388.962 309.747 388.919 309.357 388.637C305.74 386.06 301.777 384.219 297.727 382.66C294.392 381.382 290.991 380.429 287.418 380.472C285.425 380.494 283.519 380.905 281.743 381.988C278.798 383.764 277.347 387.056 277.845 390.673C278.083 392.406 279.188 396.802 284.191 401.047C292.009 407.653 300.109 410.208 300.196 410.88C300.391 412.483 301.236 414.778 301.777 416.273C304.484 423.701 308.361 430.372 312.888 436.609C323.348 451.034 336.343 462.144 351.092 470.872C373.855 484.387 398.306 491.187 424.166 492.14C432.028 492.379 440.323 491.924 448.141 490.776C462.566 488.654 476.405 484.344 489.378 476.98C501.875 469.898 512.769 460.628 521.302 448.261C525.07 442.804 528.557 437.151 529.9 430.307C530.008 429.701 530.377 429.506 530.853 429.332C533.43 428.379 536.029 427.556 538.563 426.452C540.989 425.391 543.285 424.113 545.299 422.272C547.616 420.128 549.176 417.486 549.717 414.172C550.54 409.191 548.158 405.4 543.61 404.491L543.566 404.556ZM303.943 395.243C302.232 397.604 301.041 400.246 300.543 403.213C300.434 403.906 300.326 404.058 299.676 403.624C295.583 400.896 291.165 398.427 287.678 394.723C286.595 393.597 285.555 392.427 284.797 390.998C284.234 389.937 285.187 388.312 286.27 388.009C286.963 387.814 287.678 387.792 288.154 387.814C289.908 387.879 291.36 388.204 292.789 388.68C296.644 389.893 300.239 391.734 303.683 393.922C304.289 394.312 304.376 394.615 303.921 395.243H303.943ZM541.639 414.822C540.837 415.775 539.863 416.424 538.845 417.031C536.073 418.633 533.084 419.673 530.203 420.951C529.705 421.189 529.467 420.951 529.294 420.453C528.644 418.525 527.756 416.728 526.673 415.06C526.283 414.453 526.392 414.172 527.041 414.02C531.33 412.872 535.639 411.919 540.058 411.919C540.751 411.919 541.422 412.028 542.094 412.114C542.44 412.158 542.678 412.353 542.635 412.807C542.483 413.565 542.115 414.237 541.617 414.822H541.639Z" fill="#E29700"/>
<path d="M418.903 435.895C422 434.162 424.166 431.52 425.834 428.444C427.978 424.503 429.039 420.236 429.624 415.839C430.49 409.342 430.534 402.823 430.252 396.304C429.927 388.572 429.342 380.883 428.108 373.238C426.462 363.146 423.581 353.443 418.86 344.347C417.799 342.311 416.716 340.275 415.005 338.65C412.492 336.311 408.962 335.813 406.168 337.438C403.353 339.084 402.075 342.332 402.92 345.711C403.201 346.816 403.613 347.877 404.133 348.895C408.183 356.821 410.825 365.225 412.644 373.888C414.702 383.786 415.893 393.792 416.369 403.906C416.564 407.934 416.499 411.984 415.698 415.969C415.308 417.897 414.767 419.781 413.662 421.427C412.557 423.073 411.518 423.311 409.807 422.337C408.118 421.362 406.796 419.954 405.562 418.46C401.707 413.76 399.216 408.324 397.029 402.736C395.015 397.56 393.52 392.211 391.766 386.948C391.289 385.54 390.813 384.132 390.033 382.854C387.824 379.194 383.731 379.021 381.197 382.486C380.417 383.569 379.832 384.76 379.291 385.973C377.125 390.846 375.479 395.914 373.725 400.96C372.707 403.884 371.732 406.808 370.498 409.645C370.368 409.948 370.281 410.36 369.848 410.382C369.415 410.382 369.328 409.97 369.177 409.667C368.289 407.739 367.574 405.747 366.946 403.733C365.69 399.661 364.455 395.589 363.134 391.539C362.376 389.222 361.596 386.926 360.318 384.825C359.171 382.941 357.849 382.919 356.637 384.76C355.662 386.233 355.142 387.879 354.731 389.568C353.15 395.979 352.522 402.498 352.846 409.082C353.085 413.955 354.146 418.655 356.463 422.987C358.543 426.885 361.488 429.852 365.755 431.303C372.447 433.577 379.854 430.415 383.471 423.788C385.528 420.019 386.373 415.948 386.655 411.724C386.72 410.728 386.806 409.754 386.871 408.757L387.066 408.714C387.066 408.714 387.174 408.866 387.196 408.952C387.348 409.472 387.499 409.97 387.629 410.49C388.777 415.06 390.206 419.521 392.394 423.723C394.776 428.314 397.808 432.429 402.27 435.202C407.641 438.537 413.207 439.078 418.86 435.895H418.903Z" fill="white"/>
<path d="M305.134 338.932C305.632 339.409 306.238 339.56 306.693 338.932C307.668 337.546 309.097 336.81 310.527 336.052C318.259 332.023 326.554 330.767 335.173 331.005C336.083 331.027 336.235 331.309 335.996 332.218C335.585 333.734 335.13 335.25 334.74 336.788C332.185 347.314 330.712 358.013 329.521 368.755C329.066 372.784 328.633 376.834 328.784 380.905C328.893 383.418 329.412 385.822 330.928 387.901C333.571 391.518 338.249 391.908 341.454 388.789C342.126 388.139 342.689 387.403 343.165 386.623C344.486 384.371 345.114 381.88 345.591 379.346C346.782 372.892 347.215 366.373 347.388 359.854C347.605 350.866 347.28 341.899 345.959 332.976C345.786 331.872 345.959 331.72 347.107 331.807C351.958 332.175 356.81 332.565 362.311 332.586C365.754 332.586 369.848 332.37 373.919 331.872C382.366 330.811 390.509 328.71 398.111 324.746C400.559 323.468 402.833 321.952 404.717 319.873C406.948 317.404 407.966 314.524 407.338 311.21C406.515 306.835 402.313 303.933 397.678 304.388C394.538 304.691 391.787 306.077 388.993 307.377C379.616 311.752 369.696 313.939 359.409 314.524C353.561 314.87 347.713 314.784 341.866 315.044C337.664 315.238 333.462 315.607 329.347 316.495C322.807 317.902 316.764 320.436 311.588 324.768C309.184 326.782 307.083 329.056 305.61 331.828C304.809 333.344 304.224 334.947 304.333 336.701C304.376 337.524 304.592 338.304 305.199 338.889L305.134 338.932Z" fill="white"/>
<path d="M520.674 410.338C519.959 410.49 519.309 410.836 518.66 411.161C511.794 414.562 504.798 413.175 499.752 407.393C497.673 405.032 496.114 402.325 494.728 399.531C493.038 396.109 491.717 392.514 490.201 389.027C489.01 386.233 487.775 383.482 485.978 381.013C485.429 380.248 485.566 379.62 486.389 379.129C493.341 374.971 499.666 370.055 504.928 363.86C507.397 360.958 509.52 357.839 510.949 354.288C511.772 352.23 512.314 350.086 512.184 347.833C511.946 343.848 509.152 341.055 505.34 341.033C503.737 341.033 502.221 341.466 500.77 342.137C498.236 343.307 496.092 344.996 494.099 346.902C490.071 350.757 486.909 355.262 484.072 360.005C483.877 360.33 483.769 360.763 483.314 360.937C483.097 360.525 483.249 360.114 483.314 359.724C483.942 355.284 484.483 350.844 484.332 346.339C484.223 343.567 483.877 340.816 482.837 338.196C482.383 337.069 481.776 336.052 480.801 335.272C478.787 333.669 476.275 334.254 475.214 336.593C474.412 338.369 473.698 340.188 473.265 342.116C472.333 346.144 471.619 350.216 471.012 354.288C468.565 370.639 466.551 387.034 465.381 403.516C465.099 407.458 464.948 411.378 465.121 415.341C465.186 416.901 465.468 418.417 466.356 419.738C467.612 421.622 469.756 422.034 471.64 420.756C472.723 420.019 473.394 418.958 473.893 417.789C474.651 415.948 474.911 414.02 475.084 412.071C475.669 405.768 475.712 399.423 477.12 393.185C477.704 390.586 478.008 387.901 478.441 385.258C478.484 384.955 478.397 384.544 478.766 384.435C479.155 384.327 479.372 384.717 479.589 384.955C480.13 385.583 480.498 386.32 480.801 387.078C481.386 388.485 481.798 389.937 482.166 391.409C483.141 395.199 483.877 399.033 485.025 402.78C486.714 408.302 489.075 413.457 493.082 417.702C496.07 420.886 499.644 423.008 504.04 423.506C507.354 423.875 510.581 423.376 513.7 422.229C516.667 421.146 519.418 419.586 522.32 418.352C523.403 417.875 524.291 417.117 524.919 416.078C525.742 414.67 525.698 412.829 524.745 411.616C523.684 410.273 522.255 409.992 520.652 410.338H520.674ZM485.588 373.476C488.533 366.481 492.02 359.789 497.045 354.006C498.799 351.97 500.727 350.108 503.109 348.808C503.651 348.527 504.279 347.963 504.842 348.375C505.405 348.786 505.058 349.544 504.907 350.151C504.43 352.338 503.434 354.309 502.265 356.193C498.604 362.193 493.753 367.174 488.512 371.809C487.58 372.632 486.606 373.433 485.588 374.278C485.371 373.866 485.501 373.671 485.588 373.476Z" fill="white"/>
<path d="M456.913 367.131C453.837 364.337 450.329 363.319 446.344 364.835C441.882 366.524 438.547 369.47 436.511 373.866C433.696 379.952 432.808 386.32 433.652 392.969C434.15 396.975 435.385 400.722 437.876 403.949C442.207 409.602 448.986 411.053 454.855 407.609C457.194 406.245 458.97 404.296 460.357 402C463.064 397.517 463.995 392.579 463.995 387.424C464.017 382.789 463.194 378.328 461.439 374.04C460.378 371.462 459.014 369.037 456.913 367.131ZM452.235 393.142C451.78 394.68 451.087 396.152 449.896 397.3C448.705 398.47 447.708 398.448 446.56 397.257C444.914 395.546 444.438 393.38 444.265 391.106C444.178 390.002 444.156 388.897 444.135 388.291C444.135 384.587 444.546 381.403 445.694 378.35C446.149 377.137 446.69 375.967 447.492 374.928C448.899 373.043 449.701 373.087 450.849 375.101C451.022 375.404 451.195 375.707 451.325 376.032C453.578 381.62 453.946 387.338 452.256 393.142H452.235Z" fill="white"/>
<path d="M382.193 353.248C388.062 353.031 393.022 348.721 393.78 343.177C394.386 338.629 391.246 335.077 386.676 335.164C383.926 335.207 381.673 336.42 379.811 338.347C376.583 341.683 374.894 345.689 374.786 350.389C374.894 355.5 376.757 359.897 380.504 363.427C383.687 366.416 387.456 367.932 391.896 367.521C396.379 367.109 400.775 363.622 402.01 359.485C402.595 357.515 401.923 355.695 400.342 354.937C398.675 354.114 396.899 354.721 395.707 356.497C395.383 356.995 395.079 357.515 394.733 358.013C392.74 360.828 389.687 361.651 386.546 360.222C384.077 359.096 382.431 357.168 381.305 354.742C380.699 353.443 380.785 353.335 382.193 353.291V353.248ZM380.33 347.292C380.785 344.888 381.673 342.701 383.601 341.076C384.142 340.621 384.77 340.34 385.485 340.275C386.373 340.275 386.806 340.773 386.633 341.683C386.438 342.722 385.896 343.61 385.247 344.455C384.12 345.906 382.669 346.946 381.045 347.747C380.59 347.985 380.2 347.985 380.309 347.314L380.33 347.292Z" fill="white"/>
<path d="M357.373 369.492C359.344 369.448 360.968 368.127 361.51 366.091C361.748 365.225 361.835 364.359 361.835 363.471C361.835 361.587 361.856 359.681 361.835 357.796C361.835 356.995 362.094 356.649 362.917 356.67C363.805 356.67 364.693 356.67 365.56 356.562C366.513 356.432 366.859 356.8 366.946 357.71C367.184 359.962 367.487 362.215 368.029 364.424C368.267 365.398 368.57 366.373 369.177 367.196C370.108 368.474 371.667 369.015 373.118 368.604C374.526 368.192 375.522 366.958 375.674 365.398C375.739 364.727 375.674 364.077 375.544 363.427C374.548 357.623 372.945 351.927 371.711 346.166C371.212 343.892 370.195 341.834 369.393 339.69C369.307 339.452 369.155 339.236 369.003 339.041C368.31 338.174 367.357 338.283 366.924 339.301C366.643 339.95 366.556 340.643 366.491 341.315C366.166 344.174 366.274 347.054 366.339 349.913C366.339 350.671 366.101 351.061 365.365 351.256C364.412 351.494 363.481 351.775 362.571 352.122C361.726 352.447 361.445 352.144 361.336 351.321C361.098 349.436 360.838 347.574 360.513 345.711C360.124 343.437 359.669 341.185 358.716 339.062C358.391 338.348 357.936 337.719 357.048 337.741C356.182 337.741 355.727 338.369 355.381 339.084C354.969 339.95 354.752 340.86 354.558 341.791C353.41 347.422 353.063 353.162 352.825 358.879C352.803 359.442 352.76 360.006 352.738 360.569C352.695 362.496 352.608 364.424 353.171 366.286C353.778 368.257 355.489 369.513 357.395 369.47L357.373 369.492Z" fill="white"/>
<path d="M344.205 419.391C346.349 418.244 346.5 416.273 344.551 414.8C343.273 413.825 341.931 412.916 340.609 412.028C334.025 407.631 327.268 403.516 320.554 399.293C318.627 398.08 317.695 398.297 316.699 400.376C316.331 401.155 316.136 401.978 316.071 402.845C315.941 404.577 316.179 406.267 316.872 407.848C319.601 414.302 324.453 418.438 331.037 420.539C334.567 421.665 338.14 421.514 342.039 420.323C342.537 420.106 343.403 419.803 344.205 419.391ZM337.664 416.078C335.78 416.208 333.939 416.013 332.163 415.363C326.445 413.284 322.092 409.624 319.385 404.101C319.255 403.819 319.146 403.516 319.038 403.278C318.973 403.061 318.908 402.91 318.887 402.758C318.843 402.542 318.692 402.303 318.887 402.152C319.125 401.957 319.298 402.195 319.471 402.325C325.622 406.613 331.795 410.88 337.946 415.168C338.162 415.32 338.53 415.45 338.4 415.796C338.292 416.099 337.924 416.056 337.642 416.078H337.664Z" fill="black"/>
<path d="M503.694 381.468C502.763 382.226 501.875 383.049 501.355 384.154C500.9 385.085 501.203 385.692 502.2 385.887C502.611 385.973 502.979 386.103 503.326 386.341C504.755 387.359 506.315 388.096 507.982 388.594C511.772 389.698 515.541 390.023 519.266 388.377C521.345 387.446 522.905 385.952 523.381 383.634C524.052 380.451 521.93 377.483 518.465 376.704C515.671 376.076 513.029 376.639 509.953 377.808C507.982 378.588 505.73 379.822 503.694 381.447V381.468ZM516.905 382.855C517.144 383.743 516.061 384.067 515.389 384.392C512.314 385.843 509.043 385.865 505.751 385.432C505.578 385.41 505.318 385.41 505.318 385.172C505.318 384.955 505.513 384.869 505.686 384.804C506.574 384.457 507.441 384.111 508.329 383.786C510.408 382.855 512.574 382.162 514.891 382.226C515.627 382.226 516.71 382.097 516.905 382.876V382.855Z" fill="black"/>
<path d="M488.706 427.773C486.497 426.82 484.18 426.17 481.733 426.43C479.307 426.69 477.726 428.661 478.072 430.935C478.267 432.256 479.047 433.253 480.087 434.032C481.863 435.375 483.877 436.003 486.216 436.025C486.519 436.025 486.952 436.025 487.407 435.96C490.136 435.635 491.717 433.512 491.197 430.913C490.894 429.462 490.028 428.358 488.685 427.773H488.706ZM487.277 432.646C485.848 433.188 482.642 432.191 481.776 430.935C481.386 430.372 481.494 429.939 482.079 429.614C482.794 429.224 483.574 429.138 484.353 429.138C485.653 429.138 487.364 430.285 487.819 431.477C488.057 432.061 487.84 432.43 487.277 432.646Z" fill="black"/>
<path d="M314.663 368.798C315.205 367.91 315.4 366.936 315.378 366.199C315.378 364.337 314.793 361.175 314.295 360.2C313.451 358.533 312.216 357.406 310.245 357.45C308.556 357.471 307.083 358.727 306.477 360.677C305.589 363.492 305.914 366.243 307.43 368.755C309.184 371.657 312.931 371.636 314.663 368.82V368.798ZM309.855 361.391C310.245 360.828 310.7 360.742 311.198 361.175C312.173 362.019 312.606 363.167 312.844 364.402C312.606 365.398 312.259 366.329 311.631 367.152C311.22 367.694 310.743 367.651 310.267 367.152C309.227 366.005 308.967 362.669 309.834 361.391H309.855Z" fill="black"/>
<path d="M437.876 350.086C439.738 350.541 441.146 349.675 442.294 348.288C443.03 347.401 443.507 346.361 443.853 345.278C444.221 344.152 444.59 343.004 444.893 341.834C445.066 341.12 445.304 341.011 446.019 341.228C449.289 342.224 452.581 342.463 455.852 341.271C459.49 339.95 461.05 336.507 459.512 332.175C458.905 330.551 457.259 328.861 455.224 327.584C452.473 325.851 449.593 324.4 446.539 323.274C444.135 322.386 441.644 322.017 439.088 322.212C436.338 322.407 433.912 323.36 431.985 325.374C429.775 327.67 429.949 330.529 432.374 332.608C433.067 333.193 433.869 333.648 434.649 334.081C436.663 335.207 436.879 335.749 436.035 337.914C435.385 339.582 434.865 341.271 434.519 343.026C434.302 344.173 434.215 345.343 434.519 346.491C435.017 348.267 436.013 349.61 437.876 350.043V350.086ZM439.283 344.715C439.911 342.073 440.085 339.344 440.713 336.701C441.276 334.341 439.998 332.565 438.135 331.265C437.291 330.681 436.338 330.247 435.45 329.706C434.432 329.078 434.41 328.666 435.342 327.865C436.446 326.934 437.746 326.479 439.153 326.327C440.886 326.154 442.597 326.262 444.243 326.76C447.362 327.67 450.177 329.165 452.755 331.114C453.448 331.634 454.054 332.283 454.509 333.041C455.635 334.947 455.224 336.117 452.798 336.983C451.087 337.524 449.008 337.481 446.907 337.135C443.637 336.593 443.03 336.983 442.142 340.188C441.687 341.834 441.341 343.524 440.561 345.083C440.28 345.646 439.911 346.556 439.305 346.361C438.677 346.144 439.132 345.256 439.262 344.715H439.283Z" fill="black"/>
<path d="M393.996 443.54C393.065 443.129 392.091 442.977 391.073 442.999C390.401 442.999 390.163 442.782 390.51 442.132C390.964 441.201 391.268 440.226 391.311 439.187C391.354 438.039 391.029 437.021 389.925 436.458C388.82 435.873 387.824 436.241 386.936 436.978C386.351 437.433 385.94 438.039 385.572 438.667C384.489 440.616 383.861 442.695 383.687 444.905C383.644 445.554 383.384 445.836 382.756 446.009C381.911 446.226 381.067 446.464 380.309 446.832C377.948 448.023 375.436 448.348 372.837 448.283C370.736 448.24 368.722 447.807 366.707 447.244C362.376 446.052 358.412 446.984 354.904 449.604C350.897 452.593 350.811 457.878 354.557 461.148C356.572 462.902 358.911 463.92 361.986 464.375C364.022 464.7 366.469 464.548 368.982 463.812C373.183 462.577 376.735 460.26 379.724 457.12C381.651 455.084 383.536 452.983 385.398 450.904C385.723 450.536 386.048 450.297 386.568 450.362C388.712 450.601 390.748 450.081 392.762 449.409C393.433 449.193 394.061 448.868 394.603 448.413C396.422 446.897 396.119 444.536 393.953 443.562L393.996 443.54ZM392.524 446.767C390.899 447.2 389.253 447.135 387.607 447.07C387.131 447.07 386.633 447.005 386.156 447.027C385.55 447.049 384.987 447.222 384.532 447.655C382.085 449.908 379.659 452.182 377.168 454.369C374.071 457.12 370.541 459.134 366.448 459.979C363.935 460.498 361.445 460.412 359.062 459.35C358.456 459.091 357.914 458.766 357.373 458.376C355.012 456.6 354.947 453.893 357.351 452.138C359.82 450.341 362.592 449.626 365.625 450.557C368.765 451.532 371.949 452.138 375.284 451.878C377.558 451.705 379.486 450.882 381.218 449.409C383.189 447.72 384.597 445.554 386.135 443.518C386.351 443.215 386.503 442.869 386.936 442.566C386.005 445.251 386.719 446.117 389.427 445.901C390.445 445.814 391.484 445.728 392.502 445.944C392.74 445.987 393.065 446.009 393.087 446.291C393.13 446.637 392.784 446.702 392.524 446.767Z" fill="black"/>
<path d="M457.649 441.808C457.151 440.595 457.086 440.66 458.147 439.945C460.941 438.061 463.367 435.765 465.251 432.971C465.901 432.018 466.312 430.979 466.356 430.026C466.356 428.185 465.468 426.972 463.93 426.452C463.107 426.171 462.241 426.127 461.396 426.257C460.703 426.365 460.378 426.127 460.161 425.456C459.62 423.875 458.58 423.247 456.913 423.312C455.873 423.355 454.964 423.766 454.097 424.308C453.447 424.698 453.123 424.589 453.101 423.766C453.101 423.008 453.123 422.25 452.949 421.514C452.451 419.522 450.719 418.85 449.029 419.998C448.531 420.345 448.12 420.756 447.73 421.232C446.928 422.25 446.279 423.355 445.737 424.546C445.196 425.737 445.196 425.716 444.135 425.001C442.077 423.572 440.02 424.351 439.456 426.799C439.262 427.665 439.283 428.553 439.305 429.441C439.348 430.935 439.716 432.365 440.02 433.816C440.366 435.462 440.323 435.527 438.655 435.029C438.33 434.92 437.984 434.812 437.659 434.725C436.684 434.465 435.688 434.357 434.93 435.202C434.172 436.025 434.324 436.999 434.67 437.974C435.103 439.165 435.84 440.205 436.576 441.223C436.879 441.634 436.966 441.937 436.489 442.327C434.475 443.995 434.54 445.966 436.641 447.569C438.287 448.803 440.193 449.171 442.185 449.106C445.196 449.02 447.946 448.11 450.48 446.529C450.935 446.247 451.368 445.944 451.628 446.746C452.43 449.106 453.426 451.38 454.076 453.806C454.639 455.907 455.18 458.008 456.003 460.044C456.675 461.711 457.887 462.253 459.577 461.69C460.919 461.235 462.241 460.715 463.562 460.195C466.745 458.939 467.114 457.704 465.229 454.846C462.457 450.622 459.555 446.507 457.584 441.808H457.649ZM461.374 457.51C461.136 457.596 460.898 457.704 460.66 457.791C459.295 458.268 459.338 458.203 458.667 456.946C456.415 452.766 454.747 448.348 452.884 443.995C452.603 443.367 452.235 442.76 451.888 442.176C451.433 441.396 450.762 441.244 449.939 441.569C448.466 442.111 447.188 442.955 445.889 443.8C444.979 444.385 444.091 444.948 443.117 445.424C441.99 445.966 440.908 445.771 439.825 445.316C439.586 445.229 439.326 445.121 439.305 444.818C439.305 444.558 439.543 444.471 439.716 444.363C441.492 443.215 441.666 442.154 440.366 440.486C439.976 439.988 439.565 439.512 439.175 439.014C439.045 438.84 438.85 438.645 439.023 438.429C439.153 438.256 439.37 438.342 439.543 438.386C439.825 438.451 440.106 438.516 440.366 438.559C442.532 438.927 443.853 437.714 443.745 435.527C443.658 433.946 443.225 432.408 443.008 430.849C442.965 430.545 442.9 430.221 442.878 429.917C442.835 429.484 442.575 428.899 442.987 428.683C443.485 428.423 443.68 429.073 443.983 429.354C445.391 430.719 446.993 430.394 447.751 428.575C448.206 427.47 448.618 426.344 449.094 425.239C449.224 424.958 449.311 424.438 449.722 424.568C450.069 424.676 449.874 425.109 449.874 425.412C449.874 425.694 449.852 425.976 449.831 426.257H449.874C449.874 426.799 449.809 427.34 449.874 427.86C450.155 429.722 451.736 430.415 453.296 429.354C453.837 428.986 454.314 428.51 454.834 428.098C455.18 427.817 455.548 427.578 455.916 427.318C456.09 427.21 456.306 427.058 456.523 427.253C456.674 427.405 456.61 427.6 456.566 427.795C456.523 427.946 456.48 428.098 456.436 428.25C456.198 429.159 456.198 430.026 456.999 430.675C457.801 431.325 458.667 431.109 459.49 430.697C460.14 430.372 460.79 430.026 461.504 429.874C461.786 429.809 462.089 429.722 462.306 429.982C462.522 430.264 462.306 430.524 462.132 430.74C460.01 433.534 457.627 436.025 454.444 437.606C453.166 438.234 453.079 438.321 453.664 439.598C455.743 444.19 457.476 448.955 459.858 453.395C460.421 454.434 461.006 455.409 461.721 456.34C462.132 456.86 462.089 457.25 461.418 457.488L461.374 457.51Z" fill="black"/>
</svg>
