<svg width="16" height="16" viewBox="0 0 16 16" fill="none" xmlns="http://www.w3.org/2000/svg">
<path d="M10.8641 13.92C10.7128 13.9933 10.5423 14.0174 10.3765 13.9889C10.2108 13.9603 10.0582 13.8806 9.94008 13.761L4.81608 9.06295L2.58408 10.766C2.48356 10.8422 2.35952 10.8809 2.23347 10.8752C2.10743 10.8695 1.98735 10.8199 1.89408 10.735L1.17708 10.08C1.12141 10.0287 1.07697 9.9665 1.04658 9.89722C1.01618 9.82794 1.00049 9.75311 1.00049 9.67745C1.00049 9.6018 1.01618 9.52697 1.04658 9.45769C1.07697 9.3884 1.12141 9.32618 1.17708 9.27495L3.11208 7.49995L1.17708 5.72495C1.12141 5.67372 1.07697 5.6115 1.04658 5.54222C1.01618 5.47294 1.00049 5.39811 1.00049 5.32245C1.00049 5.2468 1.01618 5.17196 1.04658 5.10268C1.07697 5.0334 1.12141 4.97118 1.17708 4.91995L1.89308 4.26495C1.98654 4.17988 2.10688 4.13029 2.23315 4.1248C2.35941 4.11932 2.4836 4.1583 2.58408 4.23495L4.81608 5.93695L9.94008 1.23995C10.0586 1.12129 10.2111 1.04236 10.3764 1.01406C10.5418 0.985753 10.7118 1.00948 10.8631 1.08195L13.5401 2.37595C13.8211 2.51195 14.0001 2.79795 14.0001 3.11195V7.99995H10.7521V4.53395L6.86408 7.49995L10.7521 10.466V7.99995H14.0001V11.889C14.0001 12.203 13.8211 12.489 13.5401 12.625L10.8641 13.92Z" fill="white"/>
</svg>
